<?xml version="1.0"?>
<svg version="1.1" id="圖層_1" xmlns="http://www.w3.org/2000/svg" x="0" y="0" viewBox="0 0 100 100" xml:space="preserve"><path d="M78.143 34.833h-30.76V21.166h30.76a4.477 4.477 0 0 1 4.477 4.477v4.713a4.476 4.476 0 0 1-4.477 4.477z" fill="#e15b64"/><path d="M78.143 49.5h-30.76V35.833h30.76a4.477 4.477 0 0 1 4.477 4.477v4.713a4.476 4.476 0 0 1-4.477 4.477z" fill="#f8b26a"/><path d="M78.143 64.167h-30.76V50.5h30.76a4.477 4.477 0 0 1 4.477 4.477v4.713a4.476 4.476 0 0 1-4.477 4.477z" fill="#abbd81"/><path d="M78.143 78.834h-30.76V65.167h30.76a4.477 4.477 0 0 1 4.477 4.477v4.713a4.476 4.476 0 0 1-4.477 4.477z" fill="#a0c8d7"/><g><path d="M70.884 87.833h-47a5.217 5.217 0 0 1-5.217-5.217V17.384a5.217 5.217 0 0 1 5.217-5.217h47a5.217 5.217 0 0 1 5.217 5.217v65.233a5.216 5.216 0 0 1-5.217 5.216z" fill="#333"/><g><path d="M25.333 82.5a2 2 0 0 1-2-2v-61a2 2 0 0 1 4 0v61a2 2 0 0 1-2 2z" fill="#e0e0e0"/></g><g><path d="M64.609 49.042c-.129 3-.87 5.382-2.224 7.146s-3.173 2.646-5.458 2.646c-1.008 0-1.878-.217-2.61-.65s-1.286-1.055-1.661-1.863c-1.069 1.496-2.434 2.31-4.098 2.442-1.719.136-3.455-.64-4.416-2.072-.973-1.45-1.34-3.378-1.102-5.784.211-1.934.7-3.653 1.468-5.159s1.737-2.663 2.909-3.472 2.438-1.213 3.797-1.213c1.676 0 3.105.387 4.289 1.16a2.29 2.29 0 0 1 .99 2.091l-.779 8.825c-.117.926-.015 1.635.308 2.127s.835.738 1.538.738c1.078 0 1.98-.63 2.707-1.89s1.125-2.909 1.195-4.948c.199-4.09-.624-7.233-2.47-9.431s-4.579-3.296-8.2-3.296c-2.262 0-4.277.574-6.047 1.723s-3.164 2.78-4.184 4.896-1.594 4.538-1.723 7.269c-.188 4.148.645 7.356 2.496 9.624s4.623 3.401 8.314 3.401c.973 0 1.992-.108 3.059-.325.476-.097.922-.208 1.34-.334.791-.239 1.614.25 1.812 1.052.175.711-.2 1.436-.878 1.711-.507.206-1.087.387-1.738.541a15.869 15.869 0 0 1-3.665.431c-3.094 0-5.73-.624-7.91-1.872s-3.806-3.088-4.878-5.52-1.538-5.335-1.397-8.71c.141-3.234.879-6.135 2.215-8.701s3.155-4.55 5.458-5.95 4.901-2.101 7.796-2.101c2.941 0 5.473.63 7.594 1.89s3.709 3.062 4.764 5.405c1.055 2.343 1.518 5.068 1.389 8.173zm-17.666 1.863c-.129 1.547.006 2.722.404 3.524s1.043 1.204 1.934 1.204c.574 0 1.119-.252 1.635-.756s.943-1.23 1.283-2.18l.738-8.314a4.43 4.43 0 0 0-1.406-.229c-1.348 0-2.394.574-3.138 1.723s-1.227 2.825-1.45 5.028z" fill="#e0e0e0"/></g></g><metadata xmlns:d="https://loading.io/stock/"><d:name>contacts</d:name><d:tags>book,address,phone,people,book,memo,tag,contacts,communication</d:tags><d:license>by</d:license><d:slug>mxzm4m</d:slug></metadata></svg>